<?xml version="1.0" encoding="UTF-8"?>
<svg width="120" height="30" viewBox="0 0 120 30" fill="none" xmlns="http://www.w3.org/2000/svg">
  <path d="M115.879 0H4.121C1.845 0 0 1.845 0 4.121v21.758C0 28.155 1.845 30 4.121 30h111.758c2.276 0 4.121-1.845 4.121-4.121V4.121C120 1.845 118.155 0 115.879 0z" fill="#00CCBC"/>
  <path d="M71.291 18.83c-.575 0-1.041-.466-1.041-1.041v-7.766c0-.575.466-1.041 1.041-1.041h2.082c.575 0 1.041.466 1.041 1.041v7.766c0 .575-.466 1.041-1.041 1.041h-2.082zM79.057 18.83c-.575 0-1.041-.466-1.041-1.041v-7.766c0-.575.466-1.041 1.041-1.041h2.082c.575 0 1.041.466 1.041 1.041v7.766c0 .575-.466 1.041-1.041 1.041h-2.082z" fill="#fff"/>
  <path d="M63.525 18.83c-.575 0-1.041-.466-1.041-1.041v-7.766c0-.575.466-1.041 1.041-1.041h2.082c.575 0 1.041.466 1.041 1.041v7.766c0 .575-.466 1.041-1.041 1.041h-2.082z" fill="#fff"/>
  <path d="M55.759 18.83c-.575 0-1.041-.466-1.041-1.041v-7.766c0-.575.466-1.041 1.041-1.041h2.082c.575 0 1.041.466 1.041 1.041v7.766c0 .575-.466 1.041-1.041 1.041h-2.082z" fill="#fff"/>
  <path d="M47.993 18.83c-.575 0-1.041-.466-1.041-1.041v-7.766c0-.575.466-1.041 1.041-1.041h2.082c.575 0 1.041.466 1.041 1.041v7.766c0 .575-.466 1.041-1.041 1.041h-2.082z" fill="#fff"/>
  <path d="M40.227 18.83c-.575 0-1.041-.466-1.041-1.041v-7.766c0-.575.466-1.041 1.041-1.041h2.082c.575 0 1.041.466 1.041 1.041v7.766c0 .575-.466 1.041-1.041 1.041h-2.082z" fill="#fff"/>
</svg>